<svg width="17" height="15" viewBox="0 0 17 15" fill="none" xmlns="http://www.w3.org/2000/svg">
<path d="M12.537 14.6146L11.8811 13.5482L10.6706 13.849L11.4753 12.8852L10.8194 11.8188L11.9757 12.2905L12.7737 11.3267L12.6858 12.5844L13.8421 13.0561L12.6317 13.3568L12.537 14.6146ZM16.8512 3.86897L16.1683 4.92166L16.9527 5.89915L15.7558 5.57104L15.0728 6.63057L15.0052 5.37281L13.8083 5.0447L14.9714 4.59355L14.9037 3.33579L15.6882 4.31329L16.8512 3.86897ZM13.1726 0L13.0374 1.25092L14.1734 1.77043L12.9563 2.03018L12.821 3.28111L12.1989 2.1874L10.9885 2.44716L11.8202 1.51068L11.1981 0.42381L12.3341 0.936482L13.1726 0ZM17 9.32381L15.9925 10.0689L16.3847 11.2651L15.3771 10.5269L14.3695 11.2788L14.7482 10.0757L13.7407 9.34432L14.9849 9.33748L15.3636 8.13441L15.7558 9.33064L17 9.32381ZM4.97693 1.42865L6.14678 5.08571H9.9471L6.87709 7.33464L8.04694 10.9917L4.97693 8.73594L1.90016 10.9917L3.07677 7.33464L0 5.08571H3.80708L4.97693 1.42865Z" fill="#FFDA44"/>
</svg>
