<svg width="34" height="24" viewBox="0 0 34 24" fill="none" xmlns="http://www.w3.org/2000/svg">
<g clip-path="url(#clip0_1_276)">
<path d="M0 0H34V23.1489H0V0Z" fill="#5E5A5A"/>
<path d="M0 0H34V1.78017H0V0ZM0 3.56033H34V5.3405H0V3.56033ZM0 7.12067H34V8.90083H0V7.12067ZM0 10.681H34V12.4612H0V10.681ZM0 14.2481H34V16.0283H0V14.2481ZM0 17.8084H34V19.5886H0V17.8084ZM0 21.3688H34V23.1489H0V21.3688Z" fill="#D80027"/>
<path d="M0 0H17V12.4612H0V0Z" fill="#2E52B2"/>
<path d="M3.16803 9.40165L2.90292 8.53525L2.61131 9.40165H1.73645L2.44561 9.92284L2.18051 10.7892L2.90292 10.2545L3.60546 10.7892L3.33372 9.92284L4.05614 9.40165H3.16803ZM6.89942 9.40165L6.62768 8.53525L6.34932 9.40165H5.47446L6.18363 9.92284L5.91852 10.7892L6.62768 10.2545L7.34347 10.7892L7.07836 9.92284L7.78753 9.40165H6.89942ZM10.6441 9.40165L10.3591 8.53525L10.094 9.40165H9.19922L9.92827 9.92284L9.6499 10.7892L10.3591 10.2545L11.0881 10.7892L10.8097 9.92284L11.5189 9.40165H10.6441ZM14.3688 9.40165L14.1037 8.53525L13.8253 9.40165H12.9439L13.6597 9.92284L13.3945 10.7892L14.1037 10.2545L14.8195 10.7892L14.5345 9.92284L15.2635 9.40165H14.3688ZM6.62768 5.09676L6.34932 5.96315H5.47446L6.18363 6.49788L5.91852 7.35073L6.62768 6.82277L7.34347 7.35073L7.07836 6.49788L7.78753 5.96315H6.89942L6.62768 5.09676ZM2.90292 5.09676L2.61131 5.96315H1.73645L2.44561 6.49788L2.18051 7.35073L2.90292 6.82277L3.60546 7.35073L3.33372 6.49788L4.05614 5.96315H3.16803L2.90292 5.09676ZM10.3591 5.09676L10.094 5.96315H9.19922L9.92827 6.49788L9.6499 7.35073L10.3591 6.82277L11.0881 7.35073L10.8097 6.49788L11.5189 5.96315H10.6441L10.3591 5.09676ZM14.1037 5.09676L13.8253 5.96315H12.9439L13.6597 6.49788L13.3945 7.35073L14.1037 6.82277L14.8195 7.35073L14.5345 6.49788L15.2635 5.96315H14.3688L14.1037 5.09676ZM2.90292 1.6718L2.61131 2.52465H1.73645L2.44561 3.05938L2.18051 3.919L2.90292 3.38428L3.60546 3.919L3.33372 3.05938L4.05614 2.52465H3.16803L2.90292 1.6718ZM6.62768 1.6718L6.34932 2.52465H5.47446L6.18363 3.05938L5.91852 3.919L6.62768 3.38428L7.34347 3.919L7.07836 3.05938L7.78753 2.52465H6.89942L6.62768 1.6718ZM10.3591 1.6718L10.094 2.52465H9.19922L9.92827 3.05938L9.6499 3.919L10.3591 3.38428L11.0881 3.919L10.8097 3.05938L11.5189 2.52465H10.6441L10.3591 1.6718ZM14.1037 1.6718L13.8253 2.52465H12.9439L13.6597 3.05938L13.3945 3.919L14.1037 3.38428L14.8195 3.919L14.5345 3.05938L15.2635 2.52465H14.3688L14.1037 1.6718Z" fill="#5E5A5A"/>
</g>
<defs>
<clipPath id="clip0_1_276">
<rect width="33.9768" height="23.1331" fill="white" transform="scale(1.00068)"/>
</clipPath>
</defs>
</svg>
